<?xml version="1.0" standalone="no"?>
<!DOCTYPE svg PUBLIC "-//W3C//DTD SVG 20010904//EN"
 "http://www.w3.org/TR/2001/REC-SVG-20010904/DTD/svg10.dtd">
<svg version="1.0" xmlns="http://www.w3.org/2000/svg"
 width="2000.000000pt" height="1414.000000pt" viewBox="0 0 2000.000000 1414.000000"
 preserveAspectRatio="xMidYMid meet">

<g transform="translate(0.000000,1414.000000) scale(0.100000,-0.100000)"
fill="#000000" stroke="none">
<path d="M8610 14083 c0 -57 43 -1017 56 -1262 7 -124 7 -125 26 -101 36 44
1008 1408 1008 1414 0 3 -245 6 -545 6 l-545 0 0 -57z"/>
<path d="M10009 14121 c19 -34 159 -157 251 -220 209 -143 442 -222 692 -233
l67 -3 46 65 c25 35 45 67 45 70 0 4 -26 14 -57 24 -157 49 -365 166 -480 270
l-51 46 -261 0 c-252 0 -261 -1 -252 -19z"/>
<path d="M10649 14112 c104 -84 281 -180 420 -227 41 -14 78 -25 82 -25 4 0
20 20 36 45 31 50 33 50 98 33 35 -9 45 -17 45 -33 0 -55 128 -1942 133 -1957
2 -7 492 706 903 1315 226 335 229 339 258 333 83 -17 106 -27 106 -46 0 -28
85 -1112 123 -1575 l33 -390 264 395 c145 217 394 593 553 835 159 242 291
442 292 443 2 2 32 -3 67 -10 l63 -14 9 -57 c8 -54 12 -61 88 -134 256 -250
541 -378 883 -398 l110 -7 47 75 46 75 -100 32 c-113 36 -248 102 -357 175
-91 61 -262 212 -268 236 -6 22 8 18 -233 74 -107 25 -204 48 -214 51 -17 6
-18 2 -14 -41 l6 -47 -45 6 c-63 8 -67 13 -43 53 14 24 18 38 10 43 -6 3 -101
28 -213 54 -111 26 -408 98 -659 160 l-458 113 0 -48 0 -47 -42 10 c-59 15
-64 22 -38 58 17 24 20 34 10 40 -6 4 -150 42 -319 84 -168 42 -459 117 -647
167 -187 49 -347 89 -353 89 -9 0 -12 -14 -9 -45 3 -49 0 -52 -50 -34 l-32 11
25 36 c13 20 23 38 20 40 -2 2 -69 22 -150 43 -145 39 -147 39 -333 39 l-187
0 34 -28z"/>
<path d="M9975 13954 c6 -100 10 -113 39 -159 138 -212 355 -401 583 -506 48
-22 96 -45 105 -50 15 -7 35 16 124 145 58 84 115 167 125 183 l19 31 -67 7
c-328 33 -603 157 -853 384 l-82 74 7 -109z"/>
<path d="M9990 13680 c1 -56 29 -512 32 -515 8 -8 139 -59 192 -75 73 -23 223
-50 280 -51 22 0 50 -4 61 -8 17 -7 28 4 72 67 51 73 56 92 28 92 -26 0 -214
101 -291 156 -140 100 -235 191 -346 334 l-28 35 0 -35z"/>
<path d="M5880 13639 c-92 -9 -257 -42 -320 -64 -36 -13 -48 -12 -117 6 -255
65 -633 65 -904 0 -592 -141 -1030 -578 -1265 -1264 -115 -336 -171 -650 -181
-1024 l-6 -203 -1403 0 -1404 0 0 -4375 0 -4375 -140 0 -140 0 0 -775 0 -775
10000 0 10000 0 0 775 0 775 -4870 0 -4870 0 0 4375 0 4375 -1160 0 -1160 0 0
148 c0 754 -202 1416 -566 1852 -177 213 -440 392 -698 475 -228 73 -522 100
-796 74z m514 -230 c613 -99 1018 -530 1225 -1302 63 -232 95 -483 107 -824
l6 -193 -449 0 -450 0 -7 218 c-18 595 -140 1086 -366 1482 -144 250 -359 481
-557 597 -24 14 -41 28 -38 31 10 10 198 19 305 15 58 -3 158 -13 224 -24z
m-1245 5 l31 -7 -78 -53 c-149 -102 -323 -283 -440 -457 -227 -336 -382 -796
-442 -1312 -6 -49 -14 -181 -17 -292 l-6 -203 -450 0 -450 0 6 183 c30 820
319 1522 767 1858 206 156 458 252 740 282 62 7 306 7 339 1z m601 -183 c202
-120 355 -273 488 -487 232 -374 365 -895 374 -1471 l3 -183 -1104 0 -1104 0
6 178 c17 451 97 833 250 1184 180 417 446 704 795 857 l65 29 81 -35 c45 -19
110 -51 146 -72z m2013 -3174 c35 -54 112 -59 158 -11 21 22 25 38 29 116 l5
90 28 -22 c83 -65 109 -200 55 -291 -27 -46 -79 -89 -131 -108 -50 -19 -133
-13 -185 13 -58 29 -85 58 -111 116 -46 101 -14 212 83 282 l41 30 5 -94 c4
-67 10 -102 23 -121z m-3553 82 c0 -76 2 -82 29 -110 24 -23 38 -29 73 -29 76
0 108 46 108 157 l0 66 33 -25 c17 -14 44 -45 59 -69 98 -157 -17 -349 -207
-349 -77 0 -130 25 -178 80 -55 65 -70 138 -46 225 11 40 94 135 118 135 7 0
11 -27 11 -81z m1320 -904 l0 -275 -30 0 -30 0 0 275 0 275 30 0 30 0 0 -275z
m2708 -2 l2 -273 -30 0 c-25 0 -30 4 -30 25 0 29 -12 32 -31 8 -38 -45 -128
-55 -196 -22 -129 63 -138 263 -14 346 49 33 144 32 195 -2 l36 -24 0 103 c0
56 3 106 7 110 4 4 19 6 33 4 l25 -3 3 -272z m-3730 250 c22 -41 -16 -75 -62
-57 -16 6 -22 54 -9 67 13 14 62 7 71 -10z m-465 -221 c44 -122 83 -219 87
-215 4 4 43 106 86 225 l79 218 33 0 c17 0 32 -3 32 -7 0 -4 -44 -124 -97
-266 l-98 -258 -38 3 -39 3 -72 190 c-40 105 -84 223 -99 263 l-27 73 37 -3
36 -3 80 -223z m2075 203 c36 -22 72 -86 72 -130 0 -46 -37 -110 -75 -131 -19
-10 -35 -19 -35 -20 0 0 25 -48 55 -105 30 -57 55 -107 55 -111 0 -5 -17 -8
-37 -7 l-38 0 -52 110 -52 109 -56 0 -55 0 0 -110 0 -110 -30 0 -30 0 0 266 0
266 123 -4 c99 -3 128 -7 155 -23z m-1618 -315 l0 -190 -30 0 -30 0 0 190 0
190 30 0 30 0 0 -190z m170 158 l0 -31 23 20 c35 33 62 43 112 43 64 0 103
-23 126 -73 15 -34 19 -66 19 -174 l0 -133 -35 0 -35 0 0 130 c0 139 -8 171
-47 189 -35 16 -64 14 -101 -9 -45 -28 -52 -53 -52 -191 l0 -119 -35 0 -35 0
0 183 c0 101 3 187 7 190 3 4 17 7 30 7 19 0 23 -5 23 -32z m407 20 c5 -7 34
-70 64 -140 29 -71 56 -128 60 -128 3 0 35 63 69 140 60 132 65 140 92 140 16
0 28 -5 28 -13 0 -7 -53 -130 -118 -272 -117 -256 -119 -260 -150 -263 -18 -2
-32 0 -32 5 0 4 19 50 42 101 29 64 39 95 31 100 -10 6 -153 321 -153 336 0
12 58 6 67 -6z m1482 -17 c39 -28 70 -91 71 -143 l0 -38 -150 0 c-96 0 -150
-4 -150 -10 0 -26 30 -77 53 -93 15 -10 46 -17 72 -17 39 0 52 5 77 31 23 22
38 29 60 27 l30 -3 -24 -34 c-41 -60 -71 -76 -148 -76 -61 0 -72 3 -107 31
-53 43 -73 86 -73 162 0 72 24 129 67 160 42 29 53 32 123 29 50 -2 73 -8 99
-26z m410 14 c34 -17 81 -70 81 -91 0 -23 -57 -18 -70 6 -13 25 -61 50 -95 50
-118 0 -168 -175 -74 -255 23 -19 42 -25 76 -25 39 0 50 5 79 35 33 35 84 49
84 23 0 -30 -43 -80 -83 -98 -83 -38 -179 -15 -233 55 -23 31 -29 50 -32 106
-8 130 60 209 181 209 32 0 71 -7 86 -15z m445 -8 c61 -34 88 -94 84 -183 -3
-60 -8 -77 -32 -109 -51 -67 -145 -92 -223 -60 -50 21 -72 42 -94 90 -46 100
-8 222 86 273 36 20 136 14 179 -11z m236 -7 c0 -16 5 -30 10 -30 6 0 10 4 10
9 0 17 67 51 99 51 28 0 31 -3 31 -29 0 -27 -4 -30 -42 -36 -26 -5 -53 -18
-70 -35 -28 -28 -28 -30 -28 -154 l0 -126 -35 0 -35 0 0 183 c0 101 3 187 7
190 3 4 17 7 30 7 19 0 23 -5 23 -30z m931 -8 c39 -43 39 -72 0 -72 -20 0 -32
6 -36 18 -6 21 -45 42 -78 42 -34 0 -69 -28 -65 -53 4 -25 31 -41 110 -62 82
-22 113 -52 113 -108 0 -97 -113 -147 -222 -97 -40 18 -83 68 -83 98 0 26 51
12 84 -23 29 -30 40 -35 79 -35 51 0 77 18 77 54 0 32 -13 40 -96 65 -99 29
-124 51 -124 106 0 37 5 47 37 75 34 31 39 32 106 28 63 -3 72 -7 98 -36z
m5394 -7252 c0 -7 -6 -15 -12 -17 -8 -3 -13 4 -13 17 0 13 5 20 13 18 6 -3 12
-11 12 -18z m415 -90 c0 -91 -3 -110 -15 -110 -12 0 -15 19 -15 110 0 91 3
110 15 110 12 0 15 -19 15 -110z m930 0 c0 -67 -4 -110 -10 -110 -5 0 -10 5
-10 12 0 9 -3 9 -12 0 -21 -21 -85 -15 -102 10 -21 29 -20 77 0 107 15 20 23
23 65 19 l49 -5 0 38 c0 22 5 39 10 39 6 0 10 -43 10 -110z m-2245 -7 c15 -60
21 -61 36 -4 17 67 41 69 59 6 12 -44 30 -69 30 -43 0 35 22 88 37 88 10 0 13
-5 8 -17 -3 -10 -14 -44 -22 -76 -21 -73 -41 -73 -64 2 -17 59 -20 59 -39 -12
-18 -68 -38 -59 -66 31 -19 64 -20 73 -6 70 9 -2 20 -20 27 -45z m224 10 c6
-21 11 -44 11 -51 0 -26 18 -1 30 43 18 64 44 62 60 -6 14 -57 20 -56 35 4 7
25 18 43 27 45 15 3 14 -5 -6 -70 -28 -92 -49 -101 -66 -28 -7 27 -15 52 -19
55 -4 2 -13 -19 -20 -46 -11 -43 -33 -71 -45 -58 -2 2 -13 37 -24 77 -16 58
-18 72 -7 72 8 0 19 -17 24 -37z m233 -20 l15 -58 17 58 c22 75 43 74 66 -3
l17 -55 13 58 c8 34 18 57 27 57 17 0 17 -2 -5 -80 -25 -87 -44 -90 -68 -13
l-17 58 -17 -55 c-24 -76 -44 -77 -65 -3 -9 32 -18 66 -21 76 -3 11 0 17 9 17
10 0 20 -20 29 -57z m292 2 c11 -30 22 -52 27 -50 4 3 15 28 24 55 10 30 22
50 32 50 8 0 13 -4 11 -8 -1 -4 -14 -38 -27 -75 -33 -90 -50 -89 -85 4 -30 82
-30 79 -13 79 7 0 21 -25 31 -55z m156 -20 c0 -60 -3 -75 -15 -75 -12 0 -15
15 -15 75 0 60 3 75 15 75 12 0 15 -15 15 -75z m164 53 c21 -30 22 -128 1
-128 -10 0 -15 15 -17 56 -2 41 -8 60 -20 68 -33 20 -53 -4 -56 -68 -2 -41 -7
-56 -17 -56 -12 0 -15 16 -15 74 l0 73 54 2 c46 1 57 -3 70 -21z m88 -34 l24
-57 25 56 c13 31 30 57 37 57 17 0 17 -1 -35 -116 -25 -57 -52 -104 -60 -104
-16 0 -16 2 3 42 15 32 14 36 -15 101 -36 79 -35 77 -17 77 7 0 24 -25 38 -56z
m218 44 c0 -9 3 -9 12 0 15 15 48 16 48 2 0 -6 -11 -15 -25 -20 -23 -9 -25
-15 -25 -65 0 -42 -3 -55 -15 -55 -12 0 -15 15 -15 75 0 43 4 75 10 75 6 0 10
-5 10 -12z m196 4 c13 -8 34 -46 34 -61 0 -7 -24 -11 -60 -11 -43 0 -60 -4
-60 -13 0 -35 57 -50 80 -22 14 17 30 20 30 6 0 -20 -33 -41 -65 -41 -57 0
-91 61 -64 113 16 29 28 37 64 37 17 0 35 -4 41 -8z m189 -12 c31 -34 7 -39
-37 -8 -33 24 -76 -20 -64 -65 8 -34 49 -46 75 -23 18 16 41 22 41 9 0 -20
-37 -43 -70 -43 -46 0 -74 28 -74 75 0 19 8 43 19 55 24 27 85 27 110 0z m174
-6 c12 -15 21 -37 21 -49 0 -12 -9 -34 -21 -49 -16 -20 -29 -26 -59 -26 -45 0
-70 26 -70 75 0 49 25 75 70 75 30 0 43 -6 59 -26z m81 14 c0 -9 3 -9 12 0 14
14 48 16 48 3 0 -5 -10 -13 -22 -17 -32 -9 -38 -22 -38 -76 0 -36 -4 -48 -15
-48 -12 0 -15 15 -15 75 0 60 3 75 15 75 8 0 15 -5 15 -12z m370 -3 c17 -21 4
-32 -20 -17 -28 17 -52 15 -48 -5 2 -9 17 -20 34 -25 45 -11 60 -32 46 -63 -9
-20 -19 -25 -48 -25 -35 0 -74 22 -74 42 0 14 27 9 40 -7 16 -19 55 -16 55 5
0 8 -13 20 -30 25 -16 6 -36 14 -42 18 -16 10 -17 39 -1 55 17 17 73 15 88 -3z
m232 -2 c10 -9 18 -20 18 -25 0 -13 -20 -9 -36 7 -32 32 -76 9 -76 -40 0 -14
5 -32 12 -40 16 -19 59 -19 66 0 6 15 34 22 34 8 0 -21 -37 -43 -71 -43 -44 0
-69 27 -69 75 0 47 25 75 67 75 20 0 45 -7 55 -17z m177 -9 c12 -15 21 -37 21
-49 0 -12 -9 -34 -21 -49 -16 -20 -29 -26 -59 -26 -45 0 -70 26 -70 75 0 49
25 75 70 75 30 0 43 -6 59 -26z m167 15 c8 -7 14 -7 19 1 12 19 73 12 89 -12
22 -30 22 -128 1 -128 -11 0 -15 13 -15 53 0 56 -12 77 -42 77 -22 0 -38 -37
-38 -91 0 -21 -4 -39 -10 -39 -5 0 -10 18 -10 39 0 54 -16 91 -38 91 -30 0
-42 -21 -42 -77 0 -40 -4 -53 -15 -53 -12 0 -15 15 -15 74 l0 73 52 2 c28 0
57 -4 64 -10z m-2276 -124 c0 -8 -6 -15 -14 -15 -17 0 -28 14 -19 24 12 12 33
6 33 -9z m1780 0 c0 -8 -6 -15 -14 -15 -17 0 -28 14 -19 24 12 12 33 6 33 -9z"/>
<path d="M7993 9275 c-92 -40 -99 -203 -11 -251 33 -19 95 -17 129 3 86 51 76
210 -16 249 -42 17 -61 17 -102 -1z"/>
<path d="M5900 9329 l0 -101 86 3 c79 4 87 6 110 32 40 47 28 133 -23 156 -13
6 -57 11 -98 11 l-75 0 0 -101z"/>
<path d="M6393 9275 c-29 -12 -63 -58 -63 -85 0 -6 41 -10 115 -10 109 0 115
1 115 20 0 32 -28 67 -62 79 -40 14 -66 13 -105 -4z"/>
<path d="M7263 9275 c-49 -21 -67 -67 -64 -163 1 -24 11 -44 35 -68 88 -88
223 -2 202 128 -9 55 -21 76 -59 98 -37 23 -70 25 -114 5z"/>
<path d="M15210 1965 c-29 -35 -7 -95 34 -95 31 0 46 19 46 55 0 17 -5 36 -12
43 -17 17 -53 15 -68 -3z"/>
<path d="M14572 1968 c-21 -21 -13 -28 33 -28 25 0 45 4 45 8 0 15 -24 32 -45
32 -12 0 -26 -5 -33 -12z"/>
<path d="M14920 1965 c-27 -33 -7 -95 31 -95 25 0 49 27 49 55 0 46 -53 72
-80 40z"/>
<path d="M15780 1965 c-27 -33 -7 -95 31 -95 25 0 49 27 49 55 0 46 -53 72
-80 40z"/>
<path d="M1381 12959 c-145 -281 -262 -512 -260 -514 6 -5 1137 49 1143 56 5
5 -582 929 -608 956 -8 9 -74 -109 -275 -498z m557 10 c155 -243 281 -443 280
-445 -2 -1 -201 -12 -443 -23 -242 -11 -478 -23 -523 -27 -70 -5 -83 -4 -80 9
5 20 472 927 478 927 3 0 132 -199 288 -441z"/>
<path d="M14675 13221 c4 -7 46 -45 94 -85 94 -78 224 -161 318 -202 62 -28
229 -84 249 -84 7 0 22 15 33 33 11 17 24 38 29 44 6 10 17 10 47 2 22 -6 41
-12 43 -14 1 -1 27 -247 58 -546 30 -299 75 -734 99 -967 25 -232 45 -430 45
-440 0 -14 2 -14 13 -2 21 22 221 340 1054 1668 7 11 19 11 68 0 l60 -13 6
-57 c8 -70 28 -99 127 -181 113 -94 166 -129 276 -186 182 -94 359 -138 569
-142 l118 -2 39 64 c43 70 48 89 24 89 -32 0 -223 69 -306 110 -45 23 -121 68
-167 99 -89 59 -251 205 -251 225 0 8 -73 28 -202 55 -112 23 -213 44 -226 48
-23 6 -23 4 -17 -41 l7 -47 -38 7 c-55 9 -60 18 -34 59 12 20 21 37 19 39 -2
2 -42 11 -89 20 -77 16 -1183 258 -1239 271 -23 6 -24 4 -19 -39 5 -45 5 -46
-23 -46 -34 0 -36 12 -8 52 12 16 20 31 18 32 -2 2 -175 43 -384 90 -209 48
-388 90 -399 93 -12 3 -16 1 -11 -6z"/>
<path d="M10023 13068 c3 -13 9 -96 12 -184 l7 -162 69 -6 c38 -4 73 -5 77 -2
5 3 47 6 93 7 l84 2 80 115 c44 63 81 118 83 122 1 4 -39 12 -90 18 -115 14
-240 45 -332 83 -85 35 -90 35 -83 7z"/>
<path d="M14150 12998 c0 -12 5 -64 10 -115 8 -73 14 -97 32 -116 13 -13 50
-59 83 -102 113 -147 295 -295 470 -382 97 -49 184 -78 195 -67 9 10 230 353
230 358 0 2 -44 6 -97 10 -311 22 -598 147 -850 373 -65 57 -73 62 -73 41z"/>
<path d="M14180 12665 c0 -22 36 -419 45 -502 l6 -52 77 -29 c113 -44 252 -73
379 -80 l112 -7 50 77 50 78 -33 14 c-18 7 -44 17 -57 21 -39 12 -153 72 -217
113 -146 95 -272 210 -385 353 -22 28 -27 30 -27 14z"/>
<path d="M10157 12653 l-108 -4 7 -127 c4 -70 10 -146 13 -169 l6 -43 72 103
c39 56 94 135 122 175 l52 72 -28 -2 c-16 -1 -77 -4 -136 -5z"/>
<path d="M17451 12584 c114 -116 349 -248 543 -304 88 -26 111 -29 118 -18 4
7 18 30 30 51 21 36 25 38 58 32 60 -10 70 -16 75 -38 2 -12 29 -224 60 -472
58 -475 184 -1465 188 -1477 2 -7 619 1018 898 1492 73 124 133 226 134 227 3
5 120 -20 128 -27 4 -4 48 -297 97 -651 48 -354 110 -796 136 -982 l47 -338
18 28 c18 27 19 74 19 1021 0 545 -2 992 -3 992 -7 0 -282 51 -303 56 -20 5
-21 3 -14 -41 l7 -47 -51 7 c-28 3 -53 8 -55 11 -3 2 5 22 17 43 l22 39 -22 5
c-13 3 -210 42 -438 86 -228 44 -516 101 -639 126 -124 25 -234 45 -244 45
-18 0 -19 -5 -14 -45 l7 -44 -33 6 c-47 9 -52 18 -28 56 l22 35 -58 12 c-114
23 -728 150 -747 154 -13 3 -5 -10 25 -40z"/>
<path d="M16913 12348 c4 -18 9 -66 13 -107 7 -70 9 -76 67 -150 121 -153 276
-284 457 -384 85 -47 251 -111 260 -100 5 4 58 89 118 189 l110 181 -116 7
c-126 7 -258 31 -362 67 -169 57 -364 170 -482 278 -31 28 -59 51 -63 51 -4 0
-5 -15 -2 -32z"/>
<path d="M14240 12009 c0 -19 7 -97 15 -174 8 -77 15 -149 15 -159 0 -18 6
-19 123 -12 214 11 191 0 281 138 43 66 75 122 73 124 -3 3 -46 9 -96 14 -144
15 -275 47 -393 95 -15 6 -18 2 -18 -26z"/>
<path d="M16950 12025 c0 -5 14 -125 30 -265 16 -140 30 -258 30 -262 0 -12
165 -66 255 -83 50 -9 140 -20 200 -23 l110 -7 44 70 c24 39 45 75 48 81 2 6
-15 16 -39 23 -79 24 -230 100 -332 168 -65 43 -145 111 -224 188 -67 66 -122
116 -122 110z"/>
<path d="M14378 11603 c-87 -3 -98 -6 -98 -22 0 -25 30 -325 33 -327 1 -2 55
78 119 177 l117 179 -37 -2 c-20 -1 -81 -4 -134 -5z"/>
<path d="M11315 11256 c-335 -127 -609 -235 -608 -240 2 -9 1014 -839 1017
-834 2 2 49 287 105 633 56 347 104 640 106 653 3 12 2 22 -2 21 -5 0 -282
-105 -618 -233z m581 177 c-2 -10 -46 -277 -97 -593 -51 -316 -96 -579 -100
-584 -4 -4 -217 164 -474 374 -256 210 -463 385 -460 389 7 6 1114 429 1128
430 5 1 6 -7 3 -16z"/>
<path d="M17023 11382 c3 -20 14 -104 23 -186 l17 -149 121 8 c67 4 138 8 158
9 36 1 38 4 117 131 l80 130 -105 7 c-113 7 -267 36 -360 68 l-57 20 6 -38z"/>
<path d="M17177 10987 l-107 -9 5 -32 c2 -17 12 -92 20 -166 9 -74 17 -135 18
-137 2 -1 53 79 114 177 107 172 111 180 85 178 -15 0 -75 -5 -135 -11z"/>
<path d="M12165 9701 c-76 -19 -115 -67 -115 -142 0 -76 43 -114 172 -154 84
-27 113 -53 113 -105 0 -59 -37 -90 -105 -90 -27 0 -61 5 -75 12 -27 12 -55
54 -55 83 0 11 -10 15 -35 15 -29 0 -35 -4 -35 -21 0 -44 42 -98 97 -126 46
-22 63 -25 113 -20 108 9 160 61 160 158 0 47 -4 55 -38 88 -25 24 -64 45
-120 65 -106 37 -126 53 -126 101 0 101 173 119 198 20 5 -21 12 -25 42 -25
32 0 35 2 29 23 -13 42 -41 81 -70 98 -36 21 -109 31 -150 20z"/>
<path d="M12667 9700 c-118 -30 -189 -126 -191 -260 -1 -100 19 -156 78 -216
72 -72 156 -91 262 -59 94 28 180 155 105 155 -23 0 -34 -8 -50 -35 -30 -51
-75 -75 -141 -75 -109 0 -178 71 -187 193 -7 81 10 139 54 187 78 87 233 75
273 -20 10 -25 18 -30 47 -30 33 0 35 1 28 28 -10 40 -51 90 -93 111 -46 23
-134 33 -185 21z"/>
<path d="M13219 9697 c-126 -35 -199 -152 -187 -301 8 -99 57 -174 143 -219
56 -31 182 -30 241 0 91 48 137 129 138 248 1 163 -82 263 -234 279 -32 3 -74
0 -101 -7z m149 -62 c82 -35 121 -102 122 -206 0 -132 -77 -219 -194 -219 -55
0 -121 25 -148 56 -48 54 -66 192 -35 266 40 95 159 143 255 103z"/>
<path d="M17095 9704 c-95 -24 -155 -70 -191 -149 -29 -61 -32 -167 -8 -238
56 -165 283 -220 421 -103 58 50 86 121 86 218 0 157 -88 257 -239 272 -27 2
-58 2 -69 0z m110 -65 c133 -37 182 -252 82 -366 -39 -45 -82 -63 -147 -63
-122 0 -194 82 -194 220 0 58 5 85 22 117 44 85 135 120 237 92z"/>
<path d="M11340 9430 l0 -272 133 4 c155 4 206 22 256 90 77 105 65 294 -26
380 -49 47 -97 61 -235 66 l-128 5 0 -273z m280 188 c64 -32 90 -87 90 -188 0
-85 -25 -149 -70 -182 -31 -22 -124 -40 -188 -36 l-47 3 -3 213 -2 212 88 0
c71 0 96 -4 132 -22z"/>
<path d="M11877 9693 c-4 -3 -7 -125 -7 -270 l0 -263 35 0 35 0 0 270 0 270
-28 0 c-16 0 -32 -3 -35 -7z"/>
<path d="M13647 9693 c-11 -10 -8 -310 3 -377 16 -97 71 -151 168 -163 93 -11
170 28 203 101 16 36 19 68 19 244 l0 202 -30 0 -30 0 0 -190 c0 -203 -6 -236
-50 -275 -17 -16 -36 -20 -86 -20 -59 0 -66 3 -96 33 l-33 32 -3 210 -3 210
-28 0 c-15 0 -31 -3 -34 -7z"/>
<path d="M14157 9693 c-4 -3 -7 -125 -7 -270 l0 -263 35 0 35 0 2 212 3 211
140 -211 c134 -203 141 -212 173 -212 l32 0 0 270 0 270 -30 0 -30 0 0 -210
c0 -115 -3 -210 -7 -210 -5 0 -71 95 -147 210 -123 187 -142 210 -166 210 -15
0 -30 -3 -33 -7z"/>
<path d="M14650 9670 l0 -30 80 0 80 0 0 -240 0 -240 30 0 30 0 0 240 0 240
80 0 80 0 0 30 0 30 -190 0 -190 0 0 -30z"/>
<path d="M15312 9493 c3 -173 6 -213 20 -239 69 -126 269 -138 346 -21 27 40
27 42 30 254 l3 213 -30 0 -31 0 -1 -187 c0 -118 -5 -201 -12 -223 -24 -70
-116 -100 -193 -64 -59 28 -64 49 -64 274 l0 200 -36 0 -36 0 4 -207z"/>
<path d="M15820 9431 l0 -271 30 0 30 0 0 109 0 108 89 5 c149 9 206 52 206
158 0 67 -20 102 -76 135 -27 15 -57 20 -156 23 l-123 4 0 -271z m249 194 c34
-17 41 -33 41 -87 0 -30 -7 -46 -29 -69 -28 -28 -34 -29 -115 -29 l-86 0 0
100 0 100 80 0 c52 0 91 -5 109 -15z"/>
<path d="M16432 9673 c3 -28 4 -28 81 -31 l77 -3 0 -239 0 -240 35 0 35 0 0
240 0 239 78 3 c76 3 77 3 80 31 l3 27 -196 0 -196 0 3 -27z"/>
<path d="M14453 8749 c-281 -25 -519 -134 -712 -326 -269 -269 -411 -664 -411
-1144 0 -321 51 -568 165 -804 128 -265 340 -479 576 -582 340 -147 825 -131
1128 38 351 196 575 557 646 1044 19 130 22 427 5 560 -71 568 -363 986 -798
1145 -168 61 -392 87 -599 69z m302 -485 c272 -57 483 -320 551 -690 9 -49 18
-161 21 -249 15 -485 -146 -849 -442 -996 -185 -91 -393 -91 -580 0 -195 96
-345 311 -405 580 -34 154 -46 339 -32 504 25 303 109 519 262 676 165 170
373 228 625 175z"/>
<path d="M11145 8688 c-2 -13 -57 -372 -120 -798 -63 -426 -118 -785 -120
-797 l-5 -23 253 0 253 0 21 43 c46 93 165 195 275 235 80 30 205 44 287 32
129 -18 215 -63 301 -157 90 -99 128 -199 137 -363 6 -132 -12 -225 -66 -335
-67 -135 -171 -226 -304 -267 -98 -29 -274 -23 -364 14 -152 63 -267 185 -308
326 l-16 52 -255 0 -255 0 7 -52 c11 -84 52 -217 94 -301 105 -210 292 -365
535 -446 152 -50 472 -72 625 -43 152 30 309 100 434 194 155 117 289 326 342
533 34 134 43 339 20 475 -67 408 -325 699 -686 776 -123 27 -356 24 -464 -5
-103 -27 -231 -90 -301 -146 -30 -25 -55 -42 -55 -39 0 10 120 616 126 637 5
16 42 17 600 17 l594 0 0 230 0 230 -790 0 -790 0 -5 -22z"/>
<path d="M16583 8586 c-103 -34 -176 -98 -222 -196 -23 -49 -26 -67 -26 -165
0 -98 3 -116 26 -165 68 -146 192 -218 358 -208 177 10 300 123 332 303 30
175 -52 345 -200 413 -68 31 -200 40 -268 18z m186 -194 c60 -45 84 -119 69
-217 -17 -113 -119 -171 -215 -122 -66 35 -100 148 -73 247 13 48 65 105 102
113 38 8 91 -1 117 -21z"/>
<path d="M17037 7841 c-229 -407 -417 -742 -417 -745 0 -3 58 -6 128 -6 l128
0 417 739 c229 406 417 741 417 745 0 3 -58 6 -128 6 l-128 0 -417 -739z"/>
<path d="M17564 7810 c-196 -41 -316 -239 -274 -452 22 -116 89 -206 189 -255
51 -25 66 -28 166 -28 100 0 115 2 167 28 71 35 140 110 169 185 18 45 23 77
23 157 1 91 -2 106 -30 165 -39 81 -92 134 -169 171 -67 32 -171 44 -241 29z
m173 -212 c43 -40 57 -78 57 -153 0 -123 -52 -189 -149 -189 -97 0 -150 66
-149 189 0 75 15 114 57 154 49 45 136 44 184 -1z"/>
<path d="M16459 6695 c-158 -51 -251 -188 -251 -370 0 -242 159 -396 398 -383
145 8 247 75 312 208 25 51 27 65 27 175 0 110 -2 124 -27 175 -41 84 -90 135
-165 172 -57 28 -78 33 -157 35 -60 2 -107 -2 -137 -12z m228 -130 c86 -43
124 -116 124 -240 0 -38 -5 -85 -10 -104 -40 -134 -194 -199 -326 -137 -59 27
-77 46 -104 106 -43 99 -36 217 20 304 57 92 190 123 296 71z"/>
<path d="M17080 6325 l0 -375 65 0 65 0 0 160 0 160 140 0 140 0 0 55 0 55
-140 0 -140 0 0 105 0 105 175 0 175 0 0 55 0 55 -240 0 -240 0 0 -375z"/>
<path d="M17670 6325 l0 -375 65 0 65 0 0 160 0 160 140 0 140 0 0 55 0 55
-140 0 -140 0 0 105 0 105 175 0 175 0 0 55 0 55 -240 0 -240 0 0 -375z"/>
<path d="M11069 5321 c-17 -18 -29 -40 -29 -56 0 -33 24 -81 45 -89 27 -10 70
-7 84 7 11 10 14 10 18 0 11 -30 24 -9 21 35 -3 44 -5 47 -32 50 -16 2 -33 -1
-39 -7 -8 -8 -3 -11 16 -11 19 0 27 -5 27 -18 0 -27 -20 -42 -56 -42 -39 0
-56 19 -57 64 -2 64 61 99 105 59 10 -9 21 -13 26 -9 12 13 -38 46 -70 46 -19
0 -40 -10 -59 -29z"/>
<path d="M12030 5315 c0 -33 -1 -34 -25 -23 -55 25 -105 -36 -74 -91 16 -29
61 -40 85 -20 10 8 14 8 14 0 0 -6 5 -11 10 -11 6 0 10 37 10 90 0 53 -4 90
-10 90 -5 0 -10 -16 -10 -35z m-9 -56 c17 -33 -4 -71 -38 -67 -36 4 -50 29
-35 62 15 33 56 35 73 5z"/>
<path d="M12307 5343 c-4 -3 -7 -14 -7 -24 0 -9 -6 -20 -12 -23 -10 -5 -10 -7
0 -12 7 -3 12 -26 12 -60 0 -30 5 -54 10 -54 6 0 10 25 10 55 0 42 3 55 15 55
8 0 15 5 15 10 0 6 -7 10 -15 10 -20 0 -19 20 3 36 16 12 16 13 -4 14 -11 0
-24 -3 -27 -7z"/>
<path d="M12690 5340 c0 -5 5 -10 10 -10 6 0 10 5 10 10 0 6 -4 10 -10 10 -5
0 -10 -4 -10 -10z"/>
<path d="M13380 5316 c0 -34 -1 -34 -29 -23 -42 16 -81 -11 -81 -57 0 -47 25
-66 83 -64 l47 2 0 88 c0 52 -4 88 -10 88 -5 0 -10 -15 -10 -34z m-21 -50 c7
-8 11 -27 9 -43 -6 -50 -78 -40 -78 11 0 41 45 62 69 32z"/>
<path d="M13432 5339 c2 -6 8 -10 13 -10 5 0 11 4 13 10 2 6 -4 11 -13 11 -9
0 -15 -5 -13 -11z"/>
<path d="M13490 5262 l0 -88 49 -2 c62 -2 83 15 79 66 -4 46 -45 75 -78 54
-19 -11 -20 -10 -20 23 0 24 -5 35 -15 35 -12 0 -15 -16 -15 -88z m99 4 c7 -8
11 -27 9 -43 -3 -25 -7 -28 -38 -28 -31 0 -35 3 -38 28 -4 32 13 57 38 57 10
0 23 -6 29 -14z"/>
<path d="M13650 5260 c0 -53 4 -90 10 -90 6 0 10 37 10 90 0 53 -4 90 -10 90
-6 0 -10 -37 -10 -90z"/>
<path d="M14320 5340 c0 -5 5 -10 10 -10 6 0 10 5 10 10 0 6 -4 10 -10 10 -5
0 -10 -4 -10 -10z"/>
<path d="M14790 5285 c0 -37 4 -65 10 -65 6 0 10 28 10 65 0 37 -4 65 -10 65
-6 0 -10 -28 -10 -65z"/>
<path d="M14945 5325 c-56 -55 -18 -155 60 -155 51 0 85 36 85 90 0 54 -34 90
-85 90 -25 0 -44 -8 -60 -25z m105 -15 c43 -43 14 -120 -45 -120 -24 0 -39 7
-49 22 -34 49 -5 118 49 118 14 0 34 -9 45 -20z"/>
<path d="M15505 5330 c-25 -27 -8 -66 34 -75 35 -8 56 -29 47 -50 -8 -21 -63
-19 -75 2 -11 21 -26 11 -18 -11 8 -19 49 -30 82 -22 36 9 45 54 15 78 -12 10
-28 18 -35 18 -21 0 -45 29 -39 45 8 21 51 19 63 -2 5 -10 13 -14 17 -10 14
14 -12 42 -43 45 -19 2 -35 -4 -48 -18z"/>
<path d="M15780 5260 c0 -53 4 -90 10 -90 6 0 10 37 10 90 0 53 -4 90 -10 90
-6 0 -10 -37 -10 -90z"/>
<path d="M16045 5341 c-6 -11 9 -23 19 -14 9 9 7 23 -3 23 -6 0 -12 -4 -16 -9z"/>
<path d="M16302 5339 c2 -6 8 -10 13 -10 5 0 11 4 13 10 2 6 -4 11 -13 11 -9
0 -15 -5 -13 -11z"/>
<path d="M17570 5315 c0 -32 -2 -34 -19 -23 -15 9 -25 9 -46 0 -32 -15 -45
-48 -33 -84 11 -31 27 -38 81 -36 l37 1 0 89 c0 52 -4 88 -10 88 -5 0 -10 -16
-10 -35z m-7 -56 c5 -9 7 -28 3 -43 -6 -24 -11 -27 -39 -24 -27 2 -33 8 -35
31 -2 16 2 35 9 43 15 18 48 15 62 -7z"/>
<path d="M17790 5260 c0 -73 3 -90 15 -90 11 0 15 12 15 49 0 41 3 51 20 56
32 10 50 -12 50 -61 0 -24 5 -44 10 -44 6 0 10 22 10 48 0 59 -24 88 -65 78
-23 -6 -25 -4 -25 24 0 20 -5 30 -15 30 -12 0 -15 -17 -15 -90z"/>
<path d="M11400 5316 c0 -8 -6 -17 -12 -19 -10 -4 -10 -7 -1 -14 6 -5 13 -31
15 -58 3 -43 6 -50 26 -53 12 -2 22 1 22 7 0 6 -7 11 -15 11 -11 0 -15 12 -15
44 0 38 3 45 23 49 l22 4 -22 8 c-13 4 -23 14 -23 21 0 8 -4 14 -10 14 -5 0
-10 -6 -10 -14z"/>
<path d="M16650 5319 c0 -9 -7 -20 -17 -23 -15 -6 -15 -8 0 -19 10 -7 17 -30
19 -57 3 -38 7 -45 26 -48 12 -2 22 1 22 7 0 6 -7 11 -15 11 -11 0 -15 12 -15
45 0 33 4 45 15 45 8 0 15 5 15 10 0 6 -5 10 -11 10 -7 0 -18 8 -25 18 -12 15
-13 15 -14 1z"/>
<path d="M17710 5316 c0 -8 -6 -17 -12 -19 -10 -4 -10 -7 -1 -14 6 -5 13 -31
15 -58 3 -43 6 -50 26 -53 12 -2 22 1 22 7 0 6 -7 11 -15 11 -11 0 -15 12 -15
44 0 38 3 45 23 49 l22 4 -22 8 c-13 4 -23 14 -23 21 0 8 -4 14 -10 14 -5 0
-10 -6 -10 -14z"/>
<path d="M11255 5280 c-23 -25 -22 -80 1 -97 24 -18 69 -16 84 2 16 20 5 32
-14 16 -20 -17 -60 -10 -64 12 -3 14 4 17 47 17 55 0 56 1 40 33 -23 42 -64
50 -94 17z m73 -22 c3 -15 -4 -18 -32 -18 -24 0 -36 5 -36 14 0 30 63 33 68 4z"/>
<path d="M11550 5235 c0 -37 4 -65 10 -65 6 0 10 18 10 39 0 38 15 64 42 74 7
2 10 7 6 11 -3 4 -16 3 -27 -4 -14 -7 -21 -7 -21 0 0 5 -4 10 -10 10 -6 0 -10
-28 -10 -65z"/>
<path d="M11662 5284 c-47 -32 -18 -114 40 -114 27 0 56 26 43 38 -4 4 -10 1
-12 -5 -7 -19 -60 -16 -67 3 -3 9 -6 18 -6 20 0 2 23 4 50 4 56 0 65 15 30 50
-24 24 -48 25 -78 4z m67 -17 c15 -19 4 -27 -36 -27 -35 0 -41 8 -21 28 16 16
43 15 57 -1z"/>
<path d="M11804 5286 c-24 -18 -13 -31 14 -15 21 13 52 7 52 -11 0 -5 -11 -10
-24 -10 -13 0 -34 -9 -47 -19 -36 -30 -16 -56 45 -57 l46 -2 0 54 c0 42 -4 55
-19 64 -27 14 -44 13 -67 -4z m64 -73 c-4 -22 -58 -31 -58 -10 0 20 10 27 37
27 18 0 24 -5 21 -17z"/>
<path d="M12070 5296 c0 -2 12 -29 26 -60 22 -48 24 -61 15 -88 -13 -37 -13
-38 -2 -38 4 0 25 37 46 83 50 110 49 107 36 107 -6 0 -20 -23 -33 -52 l-22
-52 -23 52 c-12 29 -27 52 -33 52 -5 0 -10 -2 -10 -4z"/>
<path d="M12391 5274 c-25 -32 -26 -52 -5 -82 22 -32 78 -30 100 3 45 68 -45
143 -95 79z m79 -20 c13 -34 -3 -64 -35 -64 -28 0 -48 30 -38 57 15 40 59 45
73 7z"/>
<path d="M12530 5236 c0 -37 4 -66 10 -66 6 0 10 20 10 45 0 39 4 47 25 57 14
6 25 15 25 20 0 12 -28 10 -35 -2 -5 -8 -11 -7 -21 1 -12 10 -14 1 -14 -55z"/>
<path d="M12690 5235 c0 -37 4 -65 10 -65 6 0 10 28 10 65 0 37 -4 65 -10 65
-6 0 -10 -28 -10 -65z"/>
<path d="M12750 5236 c0 -37 4 -66 10 -66 6 0 10 19 10 43 0 46 13 67 41 67
21 0 29 -20 29 -71 0 -21 5 -39 10 -39 17 0 12 97 -6 114 -18 18 -50 21 -59 6
-5 -8 -11 -7 -21 1 -12 10 -14 1 -14 -55z"/>
<path d="M12912 5284 c-28 -19 -30 -74 -4 -97 25 -23 65 -21 87 3 16 18 16 20
2 20 -10 0 -17 -4 -17 -10 0 -5 -13 -10 -30 -10 -23 0 -31 5 -36 25 -12 48 20
80 58 56 27 -16 38 -3 14 15 -25 18 -46 18 -74 -2z"/>
<path d="M13040 5236 c0 -37 4 -66 10 -66 6 0 10 20 10 45 0 39 4 47 25 57 14
6 25 15 25 20 0 12 -28 10 -35 -2 -5 -8 -11 -7 -21 1 -12 10 -14 1 -14 -55z"/>
<path d="M13145 5280 c-23 -25 -22 -80 1 -97 24 -18 69 -16 84 2 16 20 5 32
-14 16 -20 -17 -60 -10 -64 12 -3 14 4 17 47 17 55 0 56 1 40 33 -23 42 -64
50 -94 17z m73 -22 c3 -15 -4 -18 -32 -18 -24 0 -36 5 -36 14 0 30 63 33 68 4z"/>
<path d="M13436 5293 c-3 -3 -6 -33 -6 -65 0 -45 3 -58 15 -58 12 0 15 13 15
59 0 56 -9 79 -24 64z"/>
<path d="M13725 5280 c-23 -25 -22 -80 1 -97 24 -18 69 -16 84 2 16 20 5 32
-14 16 -20 -17 -60 -10 -64 12 -3 14 4 17 47 17 55 0 56 1 40 33 -23 42 -64
50 -94 17z m73 -22 c3 -15 -4 -18 -32 -18 -24 0 -36 5 -36 14 0 30 63 33 68 4z"/>
<path d="M13930 5285 c-18 -22 -6 -42 35 -59 20 -9 34 -20 30 -26 -8 -14 -38
-13 -53 2 -17 17 -28 2 -12 -17 16 -19 64 -19 80 0 18 22 6 42 -35 59 -20 9
-34 20 -30 26 9 14 42 13 48 -2 2 -7 8 -10 12 -6 12 12 -15 38 -40 38 -12 0
-28 -7 -35 -15z"/>
<path d="M14064 5286 c-24 -18 -13 -31 14 -15 21 13 52 7 52 -11 0 -5 -11 -10
-24 -10 -13 0 -34 -9 -47 -19 -36 -30 -16 -56 45 -57 l46 -2 0 54 c0 42 -4 55
-19 64 -27 14 -44 13 -67 -4z m64 -73 c-4 -22 -58 -31 -58 -10 0 20 10 27 37
27 18 0 24 -5 21 -17z"/>
<path d="M14180 5290 c0 -25 43 -120 54 -120 7 0 23 26 35 59 24 66 25 71 12
71 -5 0 -17 -24 -27 -52 l-17 -53 -24 53 c-21 49 -33 64 -33 42z"/>
<path d="M14320 5235 c0 -37 4 -65 10 -65 6 0 10 28 10 65 0 37 -4 65 -10 65
-6 0 -10 -28 -10 -65z"/>
<path d="M14380 5236 c0 -37 4 -66 10 -66 6 0 10 19 10 43 0 46 13 67 41 67
21 0 29 -20 29 -71 0 -21 5 -39 10 -39 17 0 12 97 -6 114 -18 18 -50 21 -59 6
-5 -8 -11 -7 -21 1 -12 10 -14 1 -14 -55z"/>
<path d="M14540 5285 c-7 -8 -10 -26 -8 -40 3 -14 2 -27 -2 -30 -4 -2 -6 -23
-6 -47 1 -37 5 -44 28 -52 53 -19 101 27 66 62 -7 7 -22 12 -34 12 -13 0 -26
5 -29 10 -3 6 4 10 17 10 30 0 48 18 48 47 0 13 5 23 10 23 6 0 10 5 10 10 0
16 -86 12 -100 -5z m58 -33 c3 -18 -1 -22 -22 -22 -19 0 -26 5 -26 18 0 39 43
43 48 4z m11 -87 c11 -11 -12 -35 -33 -35 -28 0 -40 14 -32 37 5 11 13 13 34
8 15 -4 29 -8 31 -10z"/>
<path d="M14676 5284 c-22 -21 -5 -50 34 -59 16 -4 30 -13 30 -21 0 -17 -41
-19 -58 -2 -17 17 -28 2 -12 -17 15 -18 61 -20 78 -3 23 23 13 46 -23 58 -19
6 -35 18 -35 26 0 17 31 19 48 2 6 -6 14 -9 17 -6 9 9 -25 38 -45 38 -10 0
-26 -7 -34 -16z"/>
<path d="M15120 5247 c0 -58 12 -77 46 -77 34 0 39 18 7 22 -26 3 -28 6 -31
56 -4 68 -22 68 -22 -1z"/>
<path d="M15208 5248 c-5 -57 -1 -78 13 -78 5 0 9 29 9 65 0 78 -16 87 -22 13z"/>
<path d="M15267 5293 c-4 -3 -7 -33 -7 -65 0 -45 3 -58 15 -58 11 0 15 12 15
44 0 35 5 48 22 60 12 9 19 19 15 22 -4 4 -13 2 -20 -4 -9 -8 -17 -8 -23 -2
-6 6 -13 7 -17 3z"/>
<path d="M15654 5286 c-24 -18 -13 -31 14 -15 20 12 52 7 52 -9 0 -5 -17 -13
-37 -18 -33 -8 -38 -13 -38 -39 0 -29 1 -30 54 -31 l53 -1 -4 48 c-3 27 -11
55 -18 64 -16 19 -50 19 -76 1z m64 -73 c-4 -22 -58 -31 -58 -10 0 20 10 27
37 27 18 0 24 -5 21 -17z"/>
<path d="M15852 5284 c-47 -32 -18 -114 40 -114 27 0 56 26 43 38 -4 4 -10 1
-12 -5 -7 -19 -60 -16 -67 3 -3 9 -6 18 -6 20 0 2 23 4 50 4 56 0 65 15 30 50
-24 24 -48 25 -78 4z m67 -17 c15 -19 4 -27 -36 -27 -35 0 -41 8 -21 28 16 16
43 15 57 -1z"/>
<path d="M16050 5235 c0 -37 4 -65 10 -65 6 0 10 28 10 65 0 37 -4 65 -10 65
-6 0 -10 -28 -10 -65z"/>
<path d="M16116 5284 c-22 -21 -5 -50 34 -59 16 -4 30 -13 30 -21 0 -17 -41
-19 -58 -2 -17 17 -28 2 -12 -17 15 -18 61 -20 78 -3 23 23 13 46 -23 58 -19
6 -35 18 -35 26 0 17 31 19 48 2 6 -6 14 -9 17 -6 9 9 -25 38 -45 38 -10 0
-26 -7 -34 -16z"/>
<path d="M16307 5293 c-4 -3 -7 -41 -7 -84 0 -53 -4 -79 -12 -82 -7 -2 -10 -7
-7 -11 3 -3 14 -4 23 0 13 5 16 22 16 95 0 89 -1 95 -13 82z"/>
<path d="M16360 5247 c0 -58 12 -77 46 -77 34 0 39 18 7 22 -26 3 -28 6 -31
56 -4 68 -22 68 -22 -1z"/>
<path d="M16448 5248 c-5 -57 -1 -78 13 -78 5 0 9 29 9 65 0 78 -16 87 -22 13z"/>
<path d="M16520 5285 c-19 -23 -8 -48 28 -57 37 -10 44 -38 9 -38 -13 0 -28 5
-35 12 -17 17 -27 2 -12 -17 9 -11 26 -15 49 -13 32 3 36 6 36 32 0 25 -5 31
-32 38 -19 5 -33 15 -33 23 0 18 31 20 48 3 6 -6 15 -8 19 -4 10 10 -25 36
-48 36 -9 0 -22 -7 -29 -15z"/>
<path d="M16814 5286 c-24 -18 -13 -31 14 -15 20 12 52 7 52 -9 0 -5 -17 -13
-37 -18 -33 -8 -38 -13 -38 -39 0 -29 1 -30 54 -31 l53 -1 -4 48 c-3 27 -11
55 -18 64 -16 19 -50 19 -76 1z m64 -73 c-4 -22 -58 -31 -58 -10 0 20 10 27
37 27 18 0 24 -5 21 -17z"/>
<path d="M16940 5236 c0 -37 4 -66 10 -66 6 0 10 20 10 45 0 39 4 47 25 57 14
6 25 15 25 20 0 12 -28 10 -35 -2 -5 -8 -11 -7 -21 1 -12 10 -14 1 -14 -55z"/>
<path d="M17041 5274 c-25 -32 -26 -52 -5 -82 22 -32 78 -30 100 3 45 68 -45
143 -95 79z m79 -20 c13 -34 -3 -64 -35 -64 -28 0 -48 30 -38 57 15 40 59 45
73 7z"/>
<path d="M17180 5247 c0 -58 12 -77 46 -77 34 0 39 18 7 22 -26 3 -28 6 -31
56 -4 68 -22 68 -22 -1z"/>
<path d="M17268 5248 c-5 -57 -1 -78 13 -78 5 0 9 29 9 65 0 78 -16 87 -22 13z"/>
<path d="M17324 5291 c-2 -2 -4 -31 -4 -63 0 -45 3 -58 15 -58 11 0 15 12 15
50 0 38 4 52 16 57 30 11 49 -11 52 -61 4 -61 22 -59 22 2 0 61 -20 82 -73 79
-21 -1 -40 -4 -43 -6z"/>
<path d="M17955 5280 c-23 -25 -22 -80 1 -97 24 -18 69 -16 84 2 16 20 5 32
-14 16 -20 -17 -60 -10 -64 12 -3 14 4 17 47 17 55 0 56 1 40 33 -23 42 -64
50 -94 17z m73 -22 c3 -15 -4 -18 -32 -18 -24 0 -36 5 -36 14 0 30 63 33 68 4z"/>
<path d="M14796 5193 c-11 -11 -6 -23 9 -23 8 0 15 4 15 9 0 13 -16 22 -24 14z"/>
<path d="M17938 4985 c2 -14 6 -25 7 -25 1 0 5 11 7 25 3 16 1 25 -7 25 -8 0
-10 -9 -7 -25z"/>
<path d="M12097 4993 c-4 -3 -7 -14 -7 -24 0 -9 -6 -20 -12 -23 -10 -5 -10 -7
0 -12 7 -3 12 -26 12 -60 0 -30 5 -54 10 -54 6 0 10 25 10 55 0 42 3 55 15 55
8 0 15 5 15 10 0 6 -7 10 -15 10 -20 0 -19 20 3 36 16 12 16 13 -4 14 -11 0
-24 -3 -27 -7z"/>
<path d="M12177 4973 c-18 -37 -11 -153 9 -153 10 0 14 14 14 55 0 46 3 55 18
55 16 1 16 1 0 14 -20 14 -24 36 -8 36 6 0 10 5 10 10 0 21 -30 9 -43 -17z"/>
<path d="M12490 4990 c0 -5 5 -10 10 -10 6 0 10 5 10 10 0 6 -4 10 -10 10 -5
0 -10 -4 -10 -10z"/>
<path d="M12900 4910 c0 -53 4 -90 10 -90 6 0 10 17 10 38 0 46 19 76 46 70
15 -2 20 -13 22 -56 2 -39 7 -52 19 -52 13 0 15 9 11 51 -7 66 -27 88 -68 72
-30 -11 -30 -11 -30 23 0 19 -4 34 -10 34 -6 0 -10 -37 -10 -90z"/>
<path d="M13650 4965 c0 -33 -1 -34 -25 -23 -55 25 -105 -36 -74 -91 16 -29
61 -40 85 -20 10 8 14 8 14 0 0 -6 5 -11 10 -11 6 0 10 37 10 90 0 53 -4 90
-10 90 -5 0 -10 -16 -10 -35z m-9 -56 c17 -33 -4 -71 -38 -67 -36 4 -50 29
-35 62 15 33 56 35 73 5z"/>
<path d="M13705 4991 c-6 -11 9 -23 19 -14 9 9 7 23 -3 23 -6 0 -12 -4 -16 -9z"/>
<path d="M15737 4973 c-18 -37 -11 -153 9 -153 10 0 14 14 14 55 0 46 3 55 18
55 16 1 16 1 0 14 -20 14 -24 36 -8 36 6 0 10 5 10 10 0 21 -30 9 -43 -17z"/>
<path d="M16325 4991 c-6 -11 9 -23 19 -14 9 9 7 23 -3 23 -6 0 -12 -4 -16 -9z"/>
<path d="M16695 4991 c-6 -11 9 -23 19 -14 9 9 7 23 -3 23 -6 0 -12 -4 -16 -9z"/>
<path d="M17470 4910 l0 -90 40 0 c59 0 88 18 101 60 21 68 -24 120 -103 120
l-38 0 0 -90z m102 53 c23 -20 24 -85 2 -107 -8 -9 -31 -16 -50 -16 l-34 0 0
70 0 70 32 0 c17 0 40 -7 50 -17z"/>
<path d="M14486 4958 c-13 -14 -15 -23 -8 -26 7 -2 12 -23 12 -46 0 -45 13
-66 42 -66 24 0 23 16 -2 23 -16 4 -20 14 -20 46 0 34 3 41 20 41 11 0 20 5
20 10 0 6 -9 10 -19 10 -11 0 -21 7 -23 15 -2 13 -7 11 -22 -7z"/>
<path d="M16400 4966 c0 -8 -6 -17 -12 -19 -10 -4 -10 -7 -1 -14 6 -5 13 -31
15 -58 3 -43 6 -50 26 -53 12 -2 22 1 22 7 0 6 -7 11 -15 11 -11 0 -15 12 -15
44 0 38 3 45 23 49 l22 4 -22 8 c-13 4 -23 14 -23 21 0 8 -4 14 -10 14 -5 0
-10 -6 -10 -14z"/>
<path d="M16766 4958 c-13 -14 -15 -23 -8 -26 7 -2 12 -23 12 -46 0 -45 13
-66 42 -66 24 0 23 16 -2 23 -16 4 -20 14 -20 46 0 34 3 41 20 41 11 0 20 5
20 10 0 6 -9 10 -19 10 -11 0 -21 7 -23 15 -2 13 -7 11 -22 -7z"/>
<path d="M18000 4969 c0 -9 -7 -20 -17 -23 -15 -6 -15 -8 0 -19 10 -7 17 -30
19 -57 3 -38 7 -45 26 -48 12 -2 22 1 22 7 0 6 -7 11 -15 11 -11 0 -15 12 -15
45 0 33 4 45 15 45 8 0 15 5 15 10 0 6 -5 10 -11 10 -7 0 -18 8 -25 18 -12 15
-13 15 -14 1z"/>
<path d="M11072 4933 c-30 -26 -33 -71 -6 -97 20 -20 68 -21 84 -1 16 20 5 32
-14 16 -8 -7 -25 -11 -38 -9 -19 2 -23 9 -23 37 0 43 25 62 56 43 27 -17 40
-5 15 14 -26 19 -49 18 -74 -3z"/>
<path d="M11210 4930 c-39 -39 -14 -110 40 -110 61 0 86 72 38 113 -27 22 -53
22 -78 -3z m69 -14 c7 -8 11 -27 9 -43 -2 -23 -8 -28 -32 -28 -38 0 -54 25
-38 59 13 29 43 34 61 12z"/>
<path d="M11347 4944 c-4 -4 -7 -34 -7 -66 0 -45 3 -58 15 -58 11 0 15 12 15
44 0 35 5 48 22 60 12 9 19 19 15 22 -4 4 -13 2 -20 -4 -9 -8 -17 -8 -23 -2
-6 6 -13 7 -17 4z"/>
<path d="M11440 4886 c0 -37 4 -66 10 -66 6 0 10 19 10 43 0 46 13 67 41 67
21 0 29 -20 29 -71 0 -21 5 -39 10 -39 17 0 12 97 -6 114 -18 18 -50 21 -59 6
-5 -8 -11 -7 -21 1 -12 10 -14 1 -14 -55z"/>
<path d="M11602 4934 c-47 -32 -18 -114 40 -114 27 0 56 26 43 38 -4 4 -10 1
-12 -5 -7 -19 -60 -16 -67 3 -3 9 -6 18 -6 20 0 2 23 4 50 4 56 0 65 15 30 50
-24 24 -48 25 -78 4z m67 -17 c15 -19 4 -27 -36 -27 -35 0 -41 8 -21 28 16 16
43 15 57 -1z"/>
<path d="M11730 4886 c0 -37 4 -66 10 -66 6 0 10 20 10 45 0 39 4 47 25 57 14
6 25 15 25 20 0 12 -28 10 -35 -2 -5 -8 -11 -7 -21 1 -12 10 -14 1 -14 -55z"/>
<path d="M11952 4934 c-28 -19 -30 -74 -4 -97 42 -38 102 -8 102 51 0 32 -29
62 -60 62 -9 0 -26 -7 -38 -16z m71 -25 c5 -9 7 -28 3 -42 -5 -21 -12 -27 -35
-27 -29 0 -41 15 -41 49 0 39 52 54 73 20z"/>
<path d="M12272 4934 c-47 -32 -18 -114 40 -114 27 0 56 26 43 38 -4 4 -10 1
-12 -5 -7 -19 -60 -16 -67 3 -3 9 -6 18 -6 20 0 2 23 4 50 4 56 0 65 15 30 50
-24 24 -48 25 -78 4z m67 -17 c15 -19 4 -27 -36 -27 -35 0 -41 8 -21 28 16 16
43 15 57 -1z"/>
<path d="M12400 4886 c0 -37 4 -66 10 -66 6 0 10 20 10 45 0 39 4 47 25 57 14
6 25 15 25 20 0 12 -28 10 -35 -2 -5 -8 -11 -7 -21 1 -12 10 -14 1 -14 -55z"/>
<path d="M12490 4885 c0 -37 4 -65 10 -65 6 0 10 28 10 65 0 37 -4 65 -10 65
-6 0 -10 -28 -10 -65z"/>
<path d="M12550 4885 c0 -74 17 -89 22 -19 3 50 22 72 52 61 12 -5 16 -19 16
-57 0 -27 5 -50 10 -50 14 0 12 104 -2 118 -7 7 -21 12 -33 12 -12 0 -26 -5
-33 -12 -9 -9 -12 -9 -12 0 0 7 -4 12 -10 12 -6 0 -10 -28 -10 -65z"/>
<path d="M12710 4935 c-7 -8 -10 -26 -8 -40 3 -14 2 -27 -2 -30 -4 -2 -6 -23
-6 -47 1 -37 5 -44 28 -52 53 -19 101 27 66 62 -7 7 -22 12 -34 12 -13 0 -26
5 -29 10 -3 6 4 10 17 10 30 0 48 18 48 47 0 13 5 23 10 23 6 0 10 5 10 10 0
16 -86 12 -100 -5z m58 -33 c3 -18 -1 -22 -22 -22 -19 0 -26 5 -26 18 0 39 43
43 48 4z m11 -87 c11 -11 -12 -35 -33 -35 -28 0 -40 14 -32 37 5 11 13 13 34
8 15 -4 29 -8 31 -10z"/>
<path d="M13044 4936 c-4 -10 -3 -39 2 -65 8 -40 12 -46 37 -49 16 -2 35 2 43
9 10 8 14 8 14 0 0 -6 5 -11 10 -11 6 0 10 26 10 59 0 33 -4 63 -10 66 -6 4
-10 -9 -10 -32 0 -47 -19 -77 -46 -72 -15 3 -20 14 -22 49 -4 50 -18 73 -28
46z"/>
<path d="M13207 4935 c-10 -9 -14 -30 -13 -57 2 -24 -1 -50 -5 -59 -12 -24 17
-59 50 -59 37 0 69 35 55 58 -6 9 -25 20 -43 23 -43 9 -51 19 -15 19 36 0 54
16 54 47 0 13 5 23 10 23 6 0 10 5 10 10 0 16 -87 12 -103 -5z m58 -30 c0 -21
-31 -33 -46 -18 -5 5 -7 17 -3 27 9 24 49 17 49 -9z m-11 -85 c32 -12 25 -40
-9 -40 -27 0 -39 14 -31 35 6 18 7 18 40 5z"/>
<path d="M13352 4934 c-47 -32 -18 -114 40 -114 27 0 56 26 43 38 -4 4 -10 1
-12 -5 -7 -19 -60 -16 -67 3 -3 9 -6 18 -6 20 0 2 23 4 50 4 56 0 65 15 30 50
-24 24 -48 25 -78 4z m67 -17 c15 -19 4 -27 -36 -27 -35 0 -41 8 -21 28 16 16
43 15 57 -1z"/>
<path d="M13710 4885 c0 -37 4 -65 10 -65 6 0 10 28 10 65 0 37 -4 65 -10 65
-6 0 -10 -28 -10 -65z"/>
<path d="M13776 4934 c-22 -21 -5 -50 34 -59 16 -4 30 -13 30 -21 0 -17 -41
-19 -58 -2 -17 17 -28 2 -12 -17 15 -18 61 -20 78 -3 23 23 13 46 -23 58 -19
6 -35 18 -35 26 0 17 31 19 48 2 6 -6 14 -9 17 -6 9 9 -25 38 -45 38 -10 0
-26 -7 -34 -16z"/>
<path d="M13912 4934 c-28 -19 -30 -74 -4 -97 25 -23 65 -21 87 3 16 18 16 20
2 20 -10 0 -17 -4 -17 -10 0 -5 -13 -10 -30 -10 -23 0 -31 5 -36 25 -12 48 20
80 58 56 27 -16 38 -3 14 15 -25 18 -46 18 -74 -2z"/>
<path d="M14050 4930 c-39 -39 -14 -110 40 -110 61 0 86 72 38 113 -27 22 -53
22 -78 -3z m69 -14 c7 -8 11 -27 9 -43 -2 -23 -8 -28 -32 -28 -38 0 -54 25
-38 59 13 29 43 34 61 12z"/>
<path d="M14184 4936 c-4 -10 -3 -39 2 -65 8 -40 12 -46 37 -49 16 -2 35 2 43
9 10 8 14 8 14 0 0 -6 5 -11 10 -11 6 0 10 26 10 59 0 33 -4 63 -10 66 -6 4
-10 -9 -10 -32 0 -47 -19 -77 -46 -72 -15 3 -20 14 -22 49 -4 50 -18 73 -28
46z"/>
<path d="M14337 4944 c-11 -11 -8 -124 3 -124 6 0 10 17 10 38 0 46 19 76 46
70 15 -2 20 -13 22 -56 2 -39 7 -52 19 -52 13 0 15 9 11 51 -7 65 -27 87 -68
72 -18 -7 -30 -7 -32 -1 -2 5 -7 6 -11 2z"/>
<path d="M14586 4934 c-22 -21 -5 -50 34 -59 16 -4 30 -13 30 -21 0 -17 -41
-19 -58 -2 -17 17 -28 2 -12 -17 15 -18 61 -20 78 -3 23 23 13 46 -23 58 -19
6 -35 18 -35 26 0 17 31 19 48 2 6 -6 14 -9 17 -6 9 9 -25 38 -45 38 -10 0
-26 -7 -34 -16z"/>
<path d="M14792 4933 c-48 -41 -23 -113 38 -113 54 0 79 71 40 110 -25 25 -51
25 -78 3z m70 -29 c16 -34 0 -59 -38 -59 -24 0 -30 5 -32 28 -7 55 48 79 70
31z"/>
<path d="M14920 4885 c0 -74 17 -89 22 -19 3 50 22 72 52 61 12 -5 16 -19 16
-57 0 -27 5 -50 10 -50 14 0 12 104 -2 118 -7 7 -21 12 -33 12 -12 0 -26 -5
-33 -12 -9 -9 -12 -9 -12 0 0 7 -4 12 -10 12 -6 0 -10 -28 -10 -65z"/>
<path d="M15120 4946 c0 -2 12 -29 26 -60 22 -48 24 -61 15 -88 -13 -37 -13
-38 -2 -38 4 0 25 37 46 83 50 110 49 107 36 107 -6 0 -20 -23 -33 -52 l-22
-52 -23 52 c-12 29 -27 52 -33 52 -5 0 -10 -2 -10 -4z"/>
<path d="M15292 4934 c-28 -19 -30 -74 -4 -97 42 -38 102 -8 102 51 0 32 -29
62 -60 62 -9 0 -26 -7 -38 -16z m71 -25 c5 -9 7 -28 3 -42 -5 -21 -12 -27 -35
-27 -29 0 -41 15 -41 49 0 39 52 54 73 20z"/>
<path d="M15428 4944 c-12 -11 -10 -82 2 -105 9 -15 20 -19 61 -17 l50 2 -3
61 c-4 71 -21 76 -28 8 -5 -43 -8 -48 -32 -51 -29 -3 -35 7 -40 76 -2 19 -6
30 -10 26z"/>
<path d="M15570 4885 c0 -37 4 -65 10 -65 6 0 10 18 10 39 0 38 15 64 42 74 7
2 10 7 6 11 -3 4 -16 3 -27 -4 -14 -7 -21 -7 -21 0 0 5 -4 10 -10 10 -6 0 -10
-28 -10 -65z"/>
<path d="M15825 4930 c-16 -18 -16 -20 -2 -20 10 0 17 5 17 10 0 14 34 12 48
-2 10 -10 3 -15 -30 -23 -39 -9 -43 -13 -43 -40 0 -25 4 -30 28 -33 16 -2 35
2 43 9 10 8 14 8 14 0 0 -6 5 -11 10 -11 6 0 10 22 10 48 0 74 -53 109 -95 62z
m65 -70 c-12 -23 -60 -28 -60 -7 0 20 10 27 42 27 26 0 28 -2 18 -20z"/>
<path d="M15943 4938 c2 -7 13 -37 23 -66 12 -33 24 -51 33 -50 16 4 54 94 48
117 -4 16 -9 7 -39 -69 -9 -24 -11 -23 -30 28 -10 28 -24 52 -30 52 -5 0 -8
-6 -5 -12z"/>
<path d="M16102 4934 c-28 -19 -30 -74 -4 -97 42 -38 102 -8 102 51 0 32 -29
62 -60 62 -9 0 -26 -7 -38 -16z m71 -25 c5 -9 7 -28 3 -42 -5 -21 -12 -27 -35
-27 -29 0 -41 15 -41 49 0 39 52 54 73 20z"/>
<path d="M16237 4944 c-10 -10 -9 -124 2 -124 4 0 11 21 14 47 3 26 9 49 14
50 4 2 15 8 23 13 21 13 5 23 -18 11 -14 -8 -21 -8 -24 0 -2 6 -7 7 -11 3z"/>
<path d="M16330 4885 c0 -37 4 -65 10 -65 6 0 10 28 10 65 0 37 -4 65 -10 65
-6 0 -10 -28 -10 -65z"/>
<path d="M16500 4930 c-39 -39 -14 -110 39 -110 27 0 51 16 51 34 0 6 -5 5
-12 -2 -22 -22 -78 -8 -78 20 0 4 23 8 50 8 43 0 50 3 50 19 0 22 -35 51 -62
51 -10 0 -27 -9 -38 -20z m68 -12 c20 -20 14 -28 -21 -28 -40 0 -51 8 -36 27
14 16 41 17 57 1z"/>
<path d="M16700 4885 c0 -37 4 -65 10 -65 6 0 10 28 10 65 0 37 -4 65 -10 65
-6 0 -10 -28 -10 -65z"/>
<path d="M16870 4930 c-39 -39 -14 -110 39 -110 27 0 51 16 51 34 0 6 -5 5
-12 -2 -22 -22 -78 -8 -78 20 0 4 23 8 50 8 43 0 50 3 50 19 0 22 -35 51 -62
51 -10 0 -27 -9 -38 -20z m68 -12 c20 -20 14 -28 -21 -28 -40 0 -51 8 -36 27
14 16 41 17 57 1z"/>
<path d="M17000 4885 c0 -74 17 -89 22 -19 6 87 68 84 68 -2 0 -24 5 -44 10
-44 6 0 10 20 10 44 0 46 19 72 45 62 11 -4 15 -20 15 -56 0 -40 3 -50 16 -50
14 0 16 8 11 52 -8 68 -26 86 -68 71 -24 -9 -35 -9 -50 0 -15 9 -23 9 -39 -1
-12 -7 -20 -8 -20 -2 0 5 -4 10 -10 10 -6 0 -10 -28 -10 -65z"/>
<path d="M17240 4935 c-19 -23 -8 -48 28 -57 37 -10 44 -38 9 -38 -13 0 -28 5
-35 12 -17 17 -27 2 -12 -17 9 -11 26 -15 49 -13 32 3 36 6 36 32 0 25 -5 31
-32 38 -19 5 -33 15 -33 23 0 18 31 20 48 3 6 -6 15 -8 19 -4 10 10 -25 36
-48 36 -9 0 -22 -7 -29 -15z"/>
<path d="M17661 4924 c-25 -32 -26 -52 -5 -82 22 -32 78 -30 100 3 45 68 -45
143 -95 79z m79 -20 c13 -34 -3 -64 -35 -64 -28 0 -48 30 -38 57 15 40 59 45
73 7z"/>
<path d="M17800 4886 c0 -37 4 -66 10 -66 6 0 10 19 10 43 0 46 13 67 41 67
21 0 29 -20 29 -71 0 -21 5 -39 10 -39 17 0 12 97 -6 114 -18 18 -50 21 -59 6
-5 -8 -11 -7 -21 1 -12 10 -14 1 -14 -55z"/>
<path d="M11815 4835 c-3 -8 -7 -22 -10 -30 -8 -25 11 -17 23 10 15 32 15 35
2 35 -6 0 -13 -7 -15 -15z"/>
<path d="M17350 4835 c0 -8 5 -15 10 -15 6 0 10 7 10 15 0 8 -4 15 -10 15 -5
0 -10 -7 -10 -15z"/>
<path d="M12540 4630 c0 -5 5 -10 10 -10 6 0 10 5 10 10 0 6 -4 10 -10 10 -5
0 -10 -4 -10 -10z"/>
<path d="M13840 4550 c0 -93 17 -126 22 -44 3 50 22 72 52 61 12 -5 16 -19 16
-57 0 -27 5 -50 10 -50 6 0 10 24 10 54 0 66 -17 85 -61 69 -29 -11 -29 -11
-29 23 0 19 -4 34 -10 34 -6 0 -10 -37 -10 -90z"/>
<path d="M14200 4552 l0 -89 49 -2 c41 -1 52 3 65 21 21 30 20 50 -5 82 -22
27 -57 34 -77 14 -9 -9 -12 -4 -12 25 0 20 -4 37 -10 37 -6 0 -10 -36 -10 -88z
m94 -3 c19 -27 7 -63 -23 -67 -28 -4 -51 14 -51 42 0 46 48 62 74 25z"/>
<path d="M14900 4605 c0 -33 -1 -34 -25 -23 -55 25 -105 -36 -74 -91 16 -29
61 -40 85 -20 10 8 14 8 14 0 0 -6 5 -11 10 -11 6 0 10 37 10 90 0 53 -4 90
-10 90 -5 0 -10 -16 -10 -35z m-9 -56 c17 -33 -4 -71 -38 -67 -36 4 -50 29
-35 62 15 33 56 35 73 5z"/>
<path d="M15230 4550 c0 -73 3 -90 15 -90 12 0 15 17 15 90 0 73 -3 90 -15 90
-12 0 -15 -17 -15 -90z"/>
<path d="M15647 4613 c-18 -37 -11 -153 9 -153 10 0 14 14 14 55 0 46 3 55 18
55 16 1 16 1 0 14 -20 14 -24 36 -8 36 6 0 10 5 10 10 0 21 -30 9 -43 -17z"/>
<path d="M15890 4550 c0 -53 4 -90 10 -90 6 0 10 19 10 43 0 46 13 67 41 67
21 0 29 -20 29 -71 0 -21 5 -39 10 -39 17 0 12 97 -6 114 -18 19 -45 21 -62 4
-9 -9 -12 -4 -12 25 0 20 -4 37 -10 37 -6 0 -10 -37 -10 -90z"/>
<path d="M16760 4575 c0 -37 4 -65 10 -65 6 0 10 28 10 65 0 37 -4 65 -10 65
-6 0 -10 -28 -10 -65z"/>
<path d="M18340 4619 c0 -21 405 -1139 412 -1137 3 2 182 210 396 463 348 410
388 461 368 467 -11 4 -275 52 -586 108 -311 55 -571 103 -577 105 -7 2 -13 0
-13 -6z m617 -131 c288 -51 522 -96 520 -100 -4 -11 -712 -848 -717 -848 -4 0
-290 788 -379 1042 -2 7 7 9 25 5 16 -3 264 -47 551 -99z"/>
<path d="M13230 4606 c0 -8 -6 -17 -12 -19 -10 -4 -10 -7 -1 -14 6 -5 13 -31
15 -58 3 -43 6 -50 26 -53 12 -2 22 1 22 7 0 6 -7 11 -15 11 -11 0 -15 12 -15
44 0 38 3 45 23 49 l22 4 -22 8 c-13 4 -23 14 -23 21 0 8 -4 14 -10 14 -5 0
-10 -6 -10 -14z"/>
<path d="M13760 4609 c0 -9 -7 -20 -17 -23 -15 -6 -15 -8 0 -19 10 -7 17 -30
19 -57 3 -38 7 -45 26 -48 12 -2 22 1 22 7 0 6 -7 11 -15 11 -11 0 -15 12 -15
45 0 33 4 45 15 45 8 0 15 5 15 10 0 6 -5 10 -11 10 -7 0 -18 8 -25 18 -12 15
-13 15 -14 1z"/>
<path d="M14636 4598 c-13 -14 -15 -23 -8 -26 7 -2 12 -23 12 -46 0 -45 13
-66 42 -66 24 0 23 16 -2 23 -15 4 -20 14 -20 42 0 28 5 38 20 42 26 7 26 23
1 23 -11 0 -21 7 -23 15 -2 13 -7 11 -22 -7z"/>
<path d="M15796 4598 c-13 -14 -15 -23 -8 -26 7 -2 12 -23 12 -46 0 -45 13
-66 42 -66 24 0 23 16 -2 23 -16 4 -20 14 -20 46 0 34 3 41 20 41 11 0 20 5
20 10 0 6 -9 10 -19 10 -11 0 -21 7 -23 15 -2 13 -7 11 -22 -7z"/>
<path d="M12310 4525 c0 -74 17 -89 22 -19 6 87 68 84 68 -2 0 -24 5 -44 10
-44 6 0 10 20 10 44 0 46 19 72 45 62 11 -4 15 -20 15 -56 0 -40 3 -50 16 -50
14 0 16 8 11 52 -8 68 -26 86 -68 71 -24 -9 -35 -9 -50 0 -15 9 -23 9 -39 -1
-12 -7 -20 -8 -20 -2 0 5 -4 10 -10 10 -6 0 -10 -28 -10 -65z"/>
<path d="M12540 4525 c0 -37 4 -65 10 -65 6 0 10 28 10 65 0 37 -4 65 -10 65
-6 0 -10 -28 -10 -65z"/>
<path d="M12610 4575 c-19 -23 -8 -48 28 -57 37 -10 44 -38 9 -38 -13 0 -28 5
-35 12 -17 17 -27 2 -12 -17 9 -11 26 -15 49 -13 32 3 36 6 36 32 0 25 -5 31
-32 38 -19 5 -33 15 -33 23 0 18 31 20 48 3 6 -6 15 -8 19 -4 10 10 -25 36
-48 36 -9 0 -22 -7 -29 -15z"/>
<path d="M12736 4574 c-22 -21 -5 -50 34 -59 16 -4 30 -13 30 -21 0 -17 -41
-19 -58 -2 -17 17 -28 2 -12 -17 15 -18 61 -20 78 -3 23 23 13 46 -23 58 -19
6 -35 18 -35 26 0 17 31 19 48 2 6 -6 14 -9 17 -6 9 9 -25 38 -45 38 -10 0
-26 -7 -34 -16z"/>
<path d="M12942 4573 c-48 -41 -23 -113 38 -113 54 0 79 71 40 110 -25 25 -51
25 -78 3z m70 -29 c16 -34 0 -59 -38 -59 -24 0 -30 5 -32 28 -7 55 48 79 70
31z"/>
<path d="M13070 4537 c0 -58 12 -77 46 -77 34 0 39 18 7 22 -26 3 -28 6 -31
56 -4 68 -22 68 -22 -1z"/>
<path d="M13158 4538 c-5 -57 -1 -78 13 -78 5 0 9 29 9 65 0 78 -16 87 -22 13z"/>
<path d="M13402 4573 c-48 -41 -23 -113 38 -113 54 0 79 71 40 110 -25 25 -51
25 -78 3z m70 -29 c16 -34 0 -59 -38 -59 -24 0 -30 5 -32 28 -7 55 48 79 70
31z"/>
<path d="M13530 4525 c0 -74 17 -89 22 -19 3 50 22 72 52 61 12 -5 16 -19 16
-57 0 -27 5 -50 10 -50 14 0 12 104 -2 118 -7 7 -21 12 -33 12 -12 0 -26 -5
-33 -12 -9 -9 -12 -9 -12 0 0 7 -4 12 -10 12 -6 0 -10 -28 -10 -65z"/>
<path d="M14006 4574 c-45 -44 -21 -114 39 -114 24 0 37 6 45 20 11 21 1 27
-17 9 -16 -16 -57 -7 -61 14 -3 14 4 17 42 17 38 0 46 3 46 18 0 43 -63 67
-94 36z m58 -10 c30 -12 18 -34 -19 -34 -22 0 -35 5 -35 13 0 26 21 34 54 21z"/>
<path d="M14376 4574 c-45 -44 -21 -114 39 -114 24 0 37 6 45 20 11 21 1 27
-17 9 -16 -16 -57 -7 -61 14 -3 14 4 17 42 17 38 0 46 3 46 18 0 43 -63 67
-94 36z m58 -10 c30 -12 18 -34 -19 -34 -22 0 -35 5 -35 13 0 26 21 34 54 21z"/>
<path d="M14510 4575 c-18 -22 -6 -42 35 -59 20 -9 34 -20 30 -26 -8 -14 -38
-13 -53 2 -17 17 -28 2 -12 -17 16 -19 64 -19 80 0 18 22 6 42 -35 59 -20 9
-34 20 -30 26 9 14 42 13 48 -2 2 -7 8 -10 12 -6 12 12 -15 38 -40 38 -12 0
-28 -7 -35 -15z"/>
<path d="M14970 4570 c-39 -39 -14 -110 39 -110 27 0 51 16 51 34 0 6 -5 5
-12 -2 -22 -22 -78 -8 -78 20 0 4 23 8 50 8 43 0 50 3 50 19 0 22 -35 51 -62
51 -10 0 -27 -9 -38 -20z m68 -12 c20 -20 14 -28 -21 -28 -40 0 -51 8 -36 27
14 16 41 17 57 1z"/>
<path d="M15114 4576 c-24 -18 -13 -31 14 -15 21 13 52 7 52 -11 0 -5 -11 -10
-24 -10 -13 0 -34 -9 -47 -19 -36 -30 -16 -56 45 -57 l46 -2 0 54 c0 42 -4 55
-19 64 -27 14 -44 13 -67 -4z m64 -73 c-4 -22 -58 -31 -58 -10 0 20 10 27 37
27 18 0 24 -5 21 -17z"/>
<path d="M15300 4575 c-18 -22 -6 -42 35 -59 20 -9 34 -20 30 -26 -8 -14 -38
-13 -53 2 -17 17 -28 2 -12 -17 16 -19 64 -19 80 0 18 22 6 42 -35 59 -20 9
-34 20 -30 26 9 14 42 13 48 -2 2 -7 8 -10 12 -6 12 12 -15 38 -40 38 -12 0
-28 -7 -35 -15z"/>
<path d="M15501 4564 c-25 -32 -26 -52 -5 -82 22 -32 78 -30 100 3 45 68 -45
143 -95 79z m79 -20 c13 -34 -3 -64 -35 -64 -28 0 -48 30 -38 57 15 40 59 45
73 7z"/>
<path d="M16052 4574 c-47 -32 -18 -114 40 -114 27 0 56 26 43 38 -4 4 -10 1
-12 -5 -7 -19 -60 -16 -67 3 -3 9 -6 18 -6 20 0 2 23 4 50 4 56 0 65 15 30 50
-24 24 -48 25 -78 4z m67 -17 c15 -19 4 -27 -36 -27 -35 0 -41 8 -21 28 16 16
43 15 57 -1z"/>
<path d="M16240 4578 c0 -7 11 -36 24 -64 21 -45 22 -54 10 -75 -16 -29 -17
-39 -4 -39 9 0 70 122 85 170 13 40 -12 19 -35 -30 l-23 -49 -23 49 c-23 49
-34 62 -34 38z"/>
<path d="M16400 4570 c-39 -39 -14 -110 39 -110 27 0 51 16 51 34 0 6 -5 5
-12 -2 -22 -22 -78 -8 -78 20 0 4 23 8 50 8 43 0 50 3 50 19 0 22 -35 51 -62
51 -10 0 -27 -9 -38 -20z m68 -12 c20 -20 14 -28 -21 -28 -40 0 -51 8 -36 27
14 16 41 17 57 1z"/>
<path d="M16544 4576 c-24 -18 -13 -31 14 -15 20 12 52 7 52 -9 0 -5 -17 -13
-37 -18 -33 -8 -38 -13 -38 -39 0 -29 1 -30 54 -31 l53 -1 -4 48 c-3 27 -11
55 -18 64 -16 19 -50 19 -76 1z m64 -73 c-4 -22 -58 -31 -58 -10 0 20 10 27
37 27 18 0 24 -5 21 -17z"/>
<path d="M16670 4526 c0 -37 4 -66 10 -66 6 0 10 20 10 45 0 39 4 47 25 57 14
6 25 15 25 20 0 12 -28 10 -35 -2 -5 -8 -11 -7 -21 1 -12 10 -14 1 -14 -55z"/>
<path d="M16766 4483 c-11 -11 -6 -23 9 -23 8 0 15 4 15 9 0 13 -16 22 -24 14z"/>
<path d="M13355 3801 c-195 -57 -330 -193 -389 -390 -20 -69 -21 -217 -1 -291
42 -159 149 -287 301 -362 l89 -43 1246 0 1246 0 84 42 c148 73 254 194 299
342 24 75 27 229 6 306 -41 157 -151 291 -294 360 -118 57 -67 55 -1348 54
-1095 0 -1183 -2 -1239 -18z m170 -362 c13 -13 26 -34 30 -46 6 -21 3 -23 -29
-23 -20 0 -36 4 -36 10 0 5 -11 17 -24 25 -31 20 -66 5 -66 -28 0 -18 15 -29
73 -57 86 -42 105 -70 87 -126 -15 -45 -51 -67 -109 -68 -57 -1 -98 18 -117
56 -21 40 -18 48 19 48 27 0 36 -6 45 -26 10 -21 18 -25 49 -22 42 4 64 29 47
55 -6 10 -37 28 -70 40 -32 13 -67 32 -76 44 -20 24 -23 70 -7 100 27 52 141
62 184 18z m661 12 c47 -21 80 -68 90 -127 26 -163 -171 -269 -283 -152 -82
87 -62 227 40 277 52 26 99 26 153 2z m1120 0 c47 -21 80 -68 90 -127 26 -163
-171 -269 -283 -152 -82 87 -62 227 40 277 52 26 99 26 153 2z m-1626 -56 l0
-65 75 0 75 0 0 65 0 65 30 0 30 0 0 -165 0 -165 -30 0 -30 0 0 70 0 70 -75 0
-75 0 0 -70 0 -70 -30 0 -30 0 0 165 0 165 30 0 30 0 0 -65z m861 36 c38 -38
40 -97 5 -137 -20 -24 -32 -28 -90 -32 l-66 -4 0 -64 0 -64 -30 0 -30 0 0 165
0 165 91 0 c87 0 92 -1 120 -29z m330 -83 l74 -112 3 112 3 112 29 0 30 0 0
-165 0 -165 -32 0 c-31 0 -38 8 -108 113 l-75 112 -3 -112 -3 -113 -29 0 -30
0 0 165 0 165 34 0 c31 0 37 -6 107 -112z m655 -15 l29 -128 34 128 34 128 36
-3 36 -3 31 -120 c17 -66 34 -113 37 -105 4 8 17 62 30 120 23 105 24 105 55
108 19 2 32 -1 32 -8 0 -6 -19 -81 -42 -166 l-42 -154 -37 0 c-37 0 -39 2 -49
43 -24 90 -49 180 -53 183 -2 2 -14 -33 -26 -78 -41 -154 -38 -148 -79 -148
l-37 0 -39 153 c-22 83 -41 158 -44 165 -3 8 7 12 30 12 l34 0 30 -127z"/>
<path d="M14039 3381 c-24 -24 -29 -38 -29 -76 0 -86 50 -135 123 -121 51 9
70 37 75 106 4 55 2 61 -26 90 -42 42 -101 42 -143 1z"/>
<path d="M15159 3381 c-24 -24 -29 -38 -29 -76 0 -86 50 -135 123 -121 51 9
70 37 75 106 4 55 2 61 -26 90 -42 42 -101 42 -143 1z"/>
<path d="M14390 3360 l0 -50 44 0 c48 0 76 19 76 50 0 31 -28 50 -76 50 l-44
0 0 -50z"/>
<path d="M11250 3693 c0 -11 341 -1065 349 -1080 4 -7 158 156 391 415 212
234 385 428 385 431 0 3 -1095 240 -1117 241 -5 0 -8 -3 -8 -7z m560 -140
c278 -58 507 -108 509 -109 4 -4 24 19 -382 -432 -176 -195 -321 -351 -324
-349 -4 4 -323 985 -323 993 0 7 16 4 520 -103z"/>
</g>
</svg>
